<?xml version="1.0" encoding="UTF-8" standalone="no"?>
<svg
   xmlns:dc="http://purl.org/dc/elements/1.1/"
   xmlns:cc="http://creativecommons.org/ns#"
   xmlns:rdf="http://www.w3.org/1999/02/22-rdf-syntax-ns#"
   xmlns:svg="http://www.w3.org/2000/svg"
   xmlns="http://www.w3.org/2000/svg"
   xmlns:sodipodi="http://sodipodi.sourceforge.net/DTD/sodipodi-0.dtd"
   xmlns:inkscape="http://www.inkscape.org/namespaces/inkscape"
   version="1.1"
   id="Layer_1"
   x="0px"
   y="0px"
   viewBox="0 0 1280 700.00001"
   xml:space="preserve"
   sodipodi:docname="curriculo.svg"
   width="1280"
   height="700"
   inkscape:version="1.0.2-2 (e86c870879, 2021-01-15)"><metadata
   id="metadata126"><rdf:RDF><cc:Work
       rdf:about=""><dc:format>image/svg+xml</dc:format><dc:type
         rdf:resource="http://purl.org/dc/dcmitype/StillImage" /><dc:title></dc:title></cc:Work></rdf:RDF></metadata><defs
   id="defs124" /><sodipodi:namedview
   pagecolor="#ffffff"
   bordercolor="#666666"
   borderopacity="1"
   objecttolerance="10"
   gridtolerance="10"
   guidetolerance="10"
   inkscape:pageopacity="0"
   inkscape:pageshadow="2"
   inkscape:window-width="1366"
   inkscape:window-height="705"
   id="namedview122"
   showgrid="false"
   inkscape:zoom="0.41986485"
   inkscape:cx="1699.3448"
   inkscape:cy="367.98525"
   inkscape:window-x="-8"
   inkscape:window-y="-8"
   inkscape:window-maximized="1"
   inkscape:current-layer="Layer_1"
   showguides="false" />










<rect
   style="opacity:1;fill:#3d2f35;fill-opacity:1;fill-rule:evenodd;stroke:#4f4444;stroke-width:4.64412;stroke-linejoin:round;paint-order:stroke fill markers"
   id="rect978"
   width="1302.0704"
   height="728.72864"
   x="1.4424658"
   y="-19.372189" /><circle
   style="opacity:1;fill:none;fill-opacity:1;fill-rule:evenodd;stroke:#2f2829;stroke-width:56.3461;stroke-linecap:round;stroke-linejoin:round;stroke-miterlimit:4;stroke-dasharray:none;stroke-opacity:1;paint-order:stroke fill markers"
   id="path1109"
   r="255.99005"
   cy="296.31387"
   cx="636.75946" /><g
   id="g976"
   transform="matrix(0.94547027,0,0,0.94547027,397.96008,61.726715)"><path
     style="fill:#2f2829;fill-opacity:1"
     d="m 503.665,66.8 v 316.343 c 0,17.909 -14.509,32.429 -32.417,32.429 H 40.754 c -17.909,0 -32.418,-14.52 -32.418,-32.429 V 66.8 c 0,-17.909 14.509,-32.429 32.418,-32.429 h 430.493 c 17.908,0 32.418,14.52 32.418,32.429 z"
     id="path69" /><path
     style="fill:#3d2f35;fill-opacity:1"
     d="m 503.665,66.8 v 316.343 c 0,17.909 -14.509,32.429 -32.417,32.429 H 183.344 L 207.096,357.647 339.655,34.371 h 131.592 c 17.908,0 32.418,14.52 32.418,32.429 z"
     id="path71" /><path
     style="fill:#efd186;fill-opacity:1"
     d="M 503.665,66.8 V 357.647 H 8.337 V 66.8 c 0,-17.909 14.509,-32.429 32.418,-32.429 h 430.493 c 17.907,0 32.417,14.52 32.417,32.429 z"
     id="path73" /><path
     style="fill:#f8e9d3;fill-opacity:1"
     d="M 503.665,66.8 V 357.647 H 207.097 L 339.655,34.371 h 131.592 c 17.908,0 32.418,14.52 32.418,32.429 z"
     id="path75" /><polygon
     style="fill:#3d2f35;fill-opacity:1"
     points="196.165,415.571 315.836,415.571 330.967,450.955 343.454,480.173 168.547,480.173 181.034,450.955 "
     id="polygon77" /><polygon
     style="fill:#2f2829;fill-opacity:1"
     points="181.034,450.955 196.165,415.571 315.836,415.571 330.967,450.955 "
     id="polygon79" /><path
     d="M 471.246,24.766 H 40.754 C 18.283,24.766 0,43.049 0,65.52 v 59.227 c 0,4.602 3.731,8.332 8.332,8.332 4.601,0 8.332,-3.731 8.332,-8.332 V 65.52 c 0,-13.284 10.807,-24.09 24.09,-24.09 h 430.492 c 13.284,0 24.09,10.807 24.09,24.09 v 284.411 h -52.21 c -4.602,0 -8.332,3.731 -8.332,8.332 0,4.601 3.731,8.332 8.332,8.332 h 52.21 v 15.273 c 0,13.284 -10.807,24.09 -24.09,24.09 H 315.836 196.164 40.754 c -13.284,0 -24.09,-10.807 -24.09,-24.09 v -15.273 h 398.688 c 4.602,0 8.332,-3.731 8.332,-8.332 0,-4.601 -3.731,-8.332 -8.332,-8.332 H 16.664 V 152.522 c 0,-4.602 -3.731,-8.332 -8.332,-8.332 C 3.731,144.19 0,147.92 0,152.522 V 381.87 c 0,22.472 18.283,40.754 40.754,40.754 H 183.54 l -20.494,47.945 h -40.034 c -4.602,0 -8.332,3.731 -8.332,8.332 0,4.601 3.731,8.332 8.332,8.332 h 265.975 c 4.602,0 8.332,-3.731 8.332,-8.332 0,-4.601 -3.731,-8.332 -8.332,-8.332 h -40.034 l -20.494,-47.945 h 142.786 c 22.472,0 40.754,-18.282 40.754,-40.754 V 65.52 C 512,43.049 493.717,24.766 471.246,24.766 Z M 330.83,470.568 H 181.17 l 14.238,-33.31 h 121.185 z"
     id="path87"
     style="fill:#1f1a1b;fill-opacity:1" /><path
     d="m 326.752,266.245 c -2.132,0 -4.265,-0.813 -5.892,-2.441 -3.254,-3.254 -3.254,-8.53 0,-11.783 l 47.92,-47.919 -47.92,-47.92 c -3.254,-3.254 -3.254,-8.53 0,-11.783 3.256,-3.255 8.531,-3.254 11.784,0 l 53.811,53.811 c 3.254,3.254 3.254,8.53 0,11.783 l -53.811,53.811 c -1.627,1.627 -3.76,2.441 -5.892,2.441 z"
     id="path81"
     style="fill:#2f2828;fill-opacity:1" /><path
     d="m 185.25,266.245 c -2.132,0 -4.265,-0.813 -5.891,-2.441 l -53.811,-53.811 c -3.254,-3.254 -3.254,-8.53 0,-11.783 l 53.811,-53.811 c 3.254,-3.254 8.53,-3.254 11.783,0 3.254,3.254 3.254,8.53 0,11.783 l -47.919,47.92 47.919,47.919 c 3.254,3.254 3.254,8.53 0,11.783 -1.627,1.627 -3.76,2.441 -5.892,2.441 z"
     id="path83"
     style="fill:#2f2828;fill-opacity:1" /><path
     d="m 231.302,290.421 c -0.833,0 -1.681,-0.126 -2.519,-0.391 -4.387,-1.39 -6.817,-6.072 -5.427,-10.46 l 49.405,-155.967 c 1.389,-4.386 6.072,-6.817 10.458,-5.427 4.387,1.39 6.817,6.072 5.427,10.46 l -49.404,155.967 c -1.124,3.549 -4.405,5.818 -7.94,5.818 z"
     id="path85"
     style="fill:#2f2828;fill-opacity:1" /><path
     d="m 253.972,376.221 c -3.517,0.879 -6.116,4.048 -6.291,7.67 -0.364,7.534 9.106,11.629 14.33,6.172 2.663,-2.782 3.078,-7.177 0.913,-10.385 -1.914,-2.906 -5.583,-4.299 -8.952,-3.457 z"
     id="path89"
     style="fill:#1f1a1b;fill-opacity:1" /></g>
<g
   id="g91">
</g>
<g
   id="g93">
</g>
<g
   id="g95">
</g>
<g
   id="g97">
</g>
<g
   id="g99">
</g>
<g
   id="g101">
</g>
<g
   id="g103">
</g>
<g
   id="g105">
</g>
<g
   id="g107">
</g>
<g
   id="g109">
</g>
<g
   id="g111">
</g>
<g
   id="g113">
</g>
<g
   id="g115">
</g>
<g
   id="g117">
</g>
<g
   id="g119">
</g>
<path
   style="fill:none;stroke:#1f1a1b;stroke-width:30.555;stroke-linecap:round;stroke-linejoin:miter;stroke-miterlimit:4;stroke-dasharray:none;stroke-opacity:1"
   d="M 3.0699516,-17.744703 462.84804,765.37594"
   id="path1159" /><path
   style="fill:none;stroke:#1f1a1b;stroke-width:30.555;stroke-linecap:round;stroke-linejoin:miter;stroke-miterlimit:4;stroke-dasharray:none;stroke-opacity:1"
   d="M -63.869233,14.032381 395.90886,797.15302"
   id="path1159-0" /><path
   style="fill:none;stroke:#1f1a1b;stroke-width:30.555;stroke-linecap:round;stroke-linejoin:miter;stroke-miterlimit:4;stroke-dasharray:none;stroke-opacity:1"
   d="M -120.61018,66.570296 339.16791,849.69094"
   id="path1159-1" /><path
   style="fill:none;stroke:#1f1a1b;stroke-width:30.555;stroke-linecap:round;stroke-linejoin:miter;stroke-miterlimit:4;stroke-dasharray:none;stroke-opacity:1"
   d="M -168.94506,129.61579 290.83303,912.73644"
   id="path1159-4" /><path
   style="fill:none;stroke:#1f1a1b;stroke-width:30.555;stroke-linecap:round;stroke-linejoin:miter;stroke-miterlimit:4;stroke-dasharray:none;stroke-opacity:1"
   d="M -221.48298,180.0522 238.29511,963.17284"
   id="path1159-8" /><path
   style="fill:none;stroke:#1f1a1b;stroke-width:30.555;stroke-linecap:round;stroke-linejoin:miter;stroke-miterlimit:4;stroke-dasharray:none;stroke-opacity:1"
   d="m 1076.4692,-201.99059 459.7781,783.12063"
   id="path1159-6" /><path
   style="fill:none;stroke:#1f1a1b;stroke-width:30.555;stroke-linecap:round;stroke-linejoin:miter;stroke-miterlimit:4;stroke-dasharray:none;stroke-opacity:1"
   d="m 1009.53,-170.21351 459.7781,783.12065"
   id="path1159-0-4" /><path
   style="fill:none;stroke:#1f1a1b;stroke-width:30.555;stroke-linecap:round;stroke-linejoin:miter;stroke-miterlimit:4;stroke-dasharray:none;stroke-opacity:1"
   d="M 952.78901,-117.67559 1412.5672,665.44504"
   id="path1159-1-9" /><path
   style="fill:none;stroke:#1f1a1b;stroke-width:30.555;stroke-linecap:round;stroke-linejoin:miter;stroke-miterlimit:4;stroke-dasharray:none;stroke-opacity:1"
   d="M 904.45421,-54.630097 1364.2322,728.49054"
   id="path1159-4-0" /><path
   style="fill:none;stroke:#1f1a1b;stroke-width:30.555;stroke-linecap:round;stroke-linejoin:miter;stroke-miterlimit:4;stroke-dasharray:none;stroke-opacity:1"
   d="M 851.91621,-4.1936873 1311.6943,778.92694"
   id="path1159-8-8" /></svg>
