<?xml version="1.0" encoding="UTF-8" standalone="no"?>
<svg
   xmlns:dc="http://purl.org/dc/elements/1.1/"
   xmlns:cc="http://creativecommons.org/ns#"
   xmlns:rdf="http://www.w3.org/1999/02/22-rdf-syntax-ns#"
   xmlns:svg="http://www.w3.org/2000/svg"
   xmlns="http://www.w3.org/2000/svg"
   xmlns:sodipodi="http://sodipodi.sourceforge.net/DTD/sodipodi-0.dtd"
   xmlns:inkscape="http://www.inkscape.org/namespaces/inkscape"
   version="1.1"
   id="Layer_1"
   x="0px"
   y="0px"
   viewBox="0 0 1280 700.00001"
   xml:space="preserve"
   sodipodi:docname="socioemocional.svg"
   width="1280"
   height="700"
   inkscape:version="1.0.2-2 (e86c870879, 2021-01-15)"><metadata
   id="metadata126"><rdf:RDF><cc:Work
       rdf:about=""><dc:format>image/svg+xml</dc:format><dc:type
         rdf:resource="http://purl.org/dc/dcmitype/StillImage" /><dc:title></dc:title></cc:Work></rdf:RDF></metadata><defs
   id="defs124" /><sodipodi:namedview
   pagecolor="#ffffff"
   bordercolor="#666666"
   borderopacity="1"
   objecttolerance="10"
   gridtolerance="10"
   guidetolerance="10"
   inkscape:pageopacity="0"
   inkscape:pageshadow="2"
   inkscape:window-width="1366"
   inkscape:window-height="705"
   id="namedview122"
   showgrid="false"
   inkscape:zoom="0.41986485"
   inkscape:cx="731.078"
   inkscape:cy="367.98525"
   inkscape:window-x="-8"
   inkscape:window-y="-8"
   inkscape:window-maximized="1"
   inkscape:current-layer="Layer_1"
   showguides="false"
   inkscape:snap-global="false" />










<rect
   style="opacity:1;fill:#3d2f35;fill-opacity:1;fill-rule:evenodd;stroke:#4f4444;stroke-width:4.64412;stroke-linejoin:round;paint-order:stroke fill markers"
   id="rect978"
   width="1302.0704"
   height="728.72864"
   x="1.4424658"
   y="-19.372189" /><path
   style="fill:none;stroke:#1f1a1b;stroke-width:46.7935;stroke-linecap:round;stroke-linejoin:miter;stroke-miterlimit:4;stroke-dasharray:none;stroke-opacity:1"
   d="M 1420.4719,629.81098 -69.113181,641.19544"
   id="path1159-9" /><path
   style="fill:none;stroke:#1f1a1b;stroke-width:46.7935;stroke-linecap:round;stroke-linejoin:miter;stroke-miterlimit:4;stroke-dasharray:none;stroke-opacity:1"
   d="M 1428.3458,537.33966 -61.239241,548.72412"
   id="path1159-9-4" /><path
   style="fill:none;stroke:#1f1a1b;stroke-width:46.7935;stroke-linecap:round;stroke-linejoin:miter;stroke-miterlimit:4;stroke-dasharray:none;stroke-opacity:1"
   d="M 1399.7652,434.92575 -89.819872,446.31021"
   id="path1159-9-9" /><path
   style="fill:none;stroke:#1f1a1b;stroke-width:46.7935;stroke-linecap:round;stroke-linejoin:miter;stroke-miterlimit:4;stroke-dasharray:none;stroke-opacity:1"
   d="M 1435.491,127.68403 -54.094087,139.06849"
   id="path1159-9-21" />
<g
   id="g91">
</g>
<g
   id="g93">
</g>
<g
   id="g95">
</g>
<g
   id="g97">
</g>
<g
   id="g99">
</g>
<g
   id="g101">
</g>
<g
   id="g103">
</g>
<g
   id="g105">
</g>
<g
   id="g107">
</g>
<g
   id="g109">
</g>
<g
   id="g111">
</g>
<g
   id="g113">
</g>
<g
   id="g115">
</g>
<g
   id="g117">
</g>
<g
   id="g119">
</g>
<path
   style="fill:none;stroke:#1f1a1b;stroke-width:46.7935;stroke-linecap:round;stroke-linejoin:miter;stroke-miterlimit:4;stroke-dasharray:none;stroke-opacity:1"
   d="M 1435.491,332.51184 -54.094087,343.8963"
   id="path1159-9-2" /><circle
   style="opacity:1;fill:none;fill-opacity:1;fill-rule:evenodd;stroke:#2f2829;stroke-width:56.3461;stroke-linecap:round;stroke-linejoin:round;stroke-miterlimit:4;stroke-dasharray:none;stroke-opacity:1;paint-order:stroke fill markers"
   id="path1109"
   r="255.99005"
   cy="296.31387"
   cx="636.75946" /><path
   style="fill:none;stroke:#1f1a1b;stroke-width:46.7935;stroke-linecap:round;stroke-linejoin:miter;stroke-miterlimit:4;stroke-dasharray:none;stroke-opacity:1"
   d="M 1461.6899,27.651834 -27.89518,39.036294"
   id="path1159-9-23" /><path
   style="fill:none;stroke:#1f1a1b;stroke-width:46.7935;stroke-linecap:round;stroke-linejoin:miter;stroke-miterlimit:4;stroke-dasharray:none;stroke-opacity:1"
   d="M 1440.2545,227.71621 -49.33065,239.10067"
   id="path1159-9-0" /><g
   id="g1862"
   transform="translate(-457.29001,-333.44064)"><g
     id="g1592"
     transform="translate(839.59065,348.95658)"
     style="fill:#f8e9d3;fill-opacity:1;stroke:#3d2f35;stroke-width:15;stroke-miterlimit:4;stroke-dasharray:none;stroke-opacity:1"><path
       style="fill:#f8e9d3;fill-opacity:1;stroke:#3d2f35;stroke-width:15;stroke-miterlimit:4;stroke-dasharray:none;stroke-opacity:1"
       d="M 256,33.085 C 245.078,13.38 224.079,0 200,0 176.219,0 154.43,13.293 143.406,34.184 115.711,41.602 96,66.977 96,96 c 0,0.059 0,0.113 0,0.172 -9.977,7.512 -16,19.301 -16,31.828 0,1.316 0.078,2.637 0.234,3.992 C 60.211,145.266 48,167.758 48,192 c 0,14.07 4.039,27.543 11.719,39.262 C 57.273,236.512 56,242.207 56,248 c 0,2.738 0.281,5.445 0.828,8.098 C 36.672,267.308 24,288.539 24,312 24,339.973 42.305,364.34 68.109,372.785 65.398,378.828 64,385.324 64,392 64,413.098 77.805,431.508 97.539,437.727 103.891,466.746 129.828,488 160,488 c 4.617,0 9.227,-0.512 13.766,-1.527 C 181.992,502 198.141,512 216,512 c 16.687,0 31.396,-8.567 40,-21.523 z"
       id="path1590" /></g><g
     id="g1598"
     transform="translate(839.59065,348.95658)"
     style="fill:#3d2f35;fill-opacity:1"><g
       id="g1596"
       style="fill:#3d2f35;fill-opacity:1"><path
         style="fill:#3d2f35;fill-opacity:1"
         d="m 264,256 c -4.422,0 -8,-3.582 -8,-8 0,-22.055 -17.945,-40 -40,-40 -8.008,0 -15.734,2.355 -22.336,6.812 -3.023,2.043 -7.055,1.781 -9.797,-0.652 C 180.711,211.351 175.39,208 168,208 c -4.422,0 -8,-3.582 -8,-8 0,-4.418 3.578,-8 8,-8 7.711,0 15.234,2.293 21.719,6.539 C 197.773,194.246 206.758,192 216,192 c 30.875,0 56,25.121 56,56 0,4.418 -3.578,8 -8,8 z"
         id="path1594" /></g></g><g
     id="g1604"
     transform="translate(839.59065,348.95658)"
     style="fill:#3d2f35;fill-opacity:1"><g
       id="g1602"
       style="fill:#3d2f35;fill-opacity:1"><path
         style="fill:#3d2f35;fill-opacity:1"
         d="m 120,120 c 18.977,0 36.875,7.312 50.414,20.594 3.141,3.09 8.203,3.047 11.312,-0.109 3.094,-3.152 3.047,-8.219 -0.109,-11.312 C 165.07,112.941 143.187,104 120,104 106.954,104 94.605,106.93 83.458,112.046 81.253,117.019 80,122.423 80,128 c 0,1.316 0.078,2.637 0.234,3.992 -0.094,0.062 -0.173,0.139 -0.267,0.202 C 91.423,124.501 105.193,120 120,120 Z"
         id="path1600" /></g></g><g
     id="g1610"
     transform="translate(839.59065,348.95658)"
     style="fill:#3d2f35;fill-opacity:1"><g
       id="g1608"
       style="fill:#3d2f35;fill-opacity:1"><path
         style="fill:#3d2f35;fill-opacity:1"
         d="m 216,360 c 0,-4.418 -3.578,-8 -8,-8 -4.422,0 -8,3.582 -8,8 0,17.645 -14.352,32 -32,32 -14.211,0 -26.82,-9.648 -30.664,-23.465 -0.703,-2.512 -2.578,-4.523 -5.039,-5.395 -2.453,-0.871 -5.188,-0.492 -7.305,1.02 C 114.094,371.906 101.305,376 88,376 c -6.948,0 -13.625,-1.149 -19.894,-3.207 -2.214,4.939 -3.501,10.19 -3.916,15.586 C 71.714,390.73 79.711,392 88,392 c 13.297,0 26.187,-3.266 37.773,-9.52 8.196,15.414 24.368,25.52 42.227,25.52 26.469,0 48,-21.531 48,-48 z"
         id="path1606" /></g></g><g
     id="g1614"
     transform="translate(839.59065,348.95658)"
     style="fill:#f4ddbc;fill-opacity:1;stroke:#3d2f35;stroke-width:15;stroke-miterlimit:4;stroke-dasharray:none;stroke-opacity:1"><path
       style="fill:#f4ddbc;fill-opacity:1;stroke:#3d2f35;stroke-width:15;stroke-miterlimit:4;stroke-dasharray:none;stroke-opacity:1"
       d="m 488,312 c 0,-23.461 -12.672,-44.691 -32.828,-55.902 0.547,-2.652 0.828,-5.359 0.828,-8.098 0,-5.793 -1.273,-11.488 -3.719,-16.738 C 459.961,219.543 464,206.07 464,192 464,167.758 451.789,145.266 431.766,131.992 431.922,130.637 432,129.316 432,128 432,115.473 425.977,103.684 416,96.172 416,96.113 416,96.059 416,96 416,66.977 396.289,41.602 368.594,34.184 357.57,13.293 335.781,0 312,0 287.92,0 266.922,13.38 256,33.085 v 457.391 c 8.604,12.957 23.313,21.524 40,21.524 17.859,0 34.008,-10 42.234,-25.527 4.539,1.015 9.149,1.527 13.766,1.527 30.172,0 56.109,-21.254 62.461,-50.273 C 434.195,431.508 448,413.097 448,392 c 0,-6.676 -1.398,-13.172 -4.109,-19.215 C 469.695,364.34 488,339.973 488,312 Z"
       id="path1612" /></g><g
     id="g1618"
     transform="translate(839.59065,348.95658)"
     style="fill:#3d2f35;fill-opacity:1"><path
       style="fill:#3d2f35;fill-opacity:1"
       d="M 272.008,151.199 C 272,151.465 272,151.734 272,152 c 0,26.469 21.531,48 48,48 26.469,0 48,-21.531 48,-48 0,-4.418 -3.578,-8 -8,-8 -4.422,0 -8,3.582 -8,8 0,17.645 -14.352,32 -32,32 -17.648,0 -32,-14.355 -32,-32 0,-2.184 0.219,-4.359 0.656,-6.465 0.492,-2.395 -0.133,-4.883 -1.703,-6.754 -1.57,-1.871 -4.016,-3.066 -6.352,-2.859 -0.453,0.012 -0.891,0.059 -0.602,0.078 -13.234,0 -24,-10.766 -24,-24 v 31.813 c 4.674,3.535 10.062,6.175 16.009,7.386 z"
       id="path1616" /></g><g
     id="g1622"
     transform="translate(839.59065,348.95658)"
     style="fill:#3d2f35;fill-opacity:1"><path
       style="fill:#3d2f35;fill-opacity:1"
       d="m 296,328 c 9.242,0 18.219,-2.246 26.281,-6.539 6.484,4.246 14.008,6.539 21.719,6.539 4.422,0 8,-3.582 8,-8 0,-4.418 -3.578,-8 -8,-8 -7.391,0 -12.711,-3.352 -15.867,-6.16 -2.742,-2.434 -6.766,-2.695 -9.797,-0.656 C 311.726,309.644 304,312 296,312 c -22.055,0 -40,-17.945 -40,-40 v 39.116 C 266.174,321.517 280.337,328 296,328 Z"
       id="path1620" /></g><g
     id="g1628"
     transform="translate(839.59065,348.95658)"
     style="fill:#3d2f35;fill-opacity:1"><g
       id="g1626"
       style="fill:#3d2f35;fill-opacity:1"><path
         style="fill:#3d2f35;fill-opacity:1"
         d="m 431.765,131.992 c 0.156,-1.355 0.234,-2.676 0.234,-3.992 0,-5.577 -1.253,-10.981 -3.458,-15.954 C 417.395,106.93 405.046,104 392,104 c -4.422,0 -8,3.582 -8,8 0,4.418 3.578,8 8,8 14.807,0 28.577,4.501 40.032,12.194 -0.093,-0.063 -0.173,-0.14 -0.267,-0.202 z"
         id="path1624" /></g></g><g
     id="g1634"
     transform="translate(839.59065,348.95658)"
     style="fill:#3d2f35;fill-opacity:1"><g
       id="g1632"
       style="fill:#3d2f35;fill-opacity:1"><path
         style="fill:#3d2f35;fill-opacity:1"
         d="m 447.81,388.38 c -0.415,-5.396 -1.702,-10.647 -3.916,-15.586 C 437.624,374.85 430.948,376 424,376 c -13.578,0 -26.594,-4.266 -37.641,-12.332 -2.07,-1.5 -4.719,-1.93 -7.133,-1.168 -2.43,0.77 -4.344,2.648 -5.164,5.059 C 369.101,382.176 355.414,392 340,392 c -4.422,0 -8,3.582 -8,8 0,4.418 3.578,8 8,8 18.875,0 35.961,-10.191 45.094,-26.156 C 396.976,388.512 410.258,392 424,392 c 8.288,0 16.285,-1.27 23.81,-3.62 z"
         id="path1630" /></g></g></g></svg>
