<?xml version="1.0" encoding="UTF-8" standalone="no"?>
<svg
   xmlns:dc="http://purl.org/dc/elements/1.1/"
   xmlns:cc="http://creativecommons.org/ns#"
   xmlns:rdf="http://www.w3.org/1999/02/22-rdf-syntax-ns#"
   xmlns:svg="http://www.w3.org/2000/svg"
   xmlns="http://www.w3.org/2000/svg"
   xmlns:sodipodi="http://sodipodi.sourceforge.net/DTD/sodipodi-0.dtd"
   xmlns:inkscape="http://www.inkscape.org/namespaces/inkscape"
   version="1.1"
   id="Layer_1"
   x="0px"
   y="0px"
   viewBox="0 0 1280 700.00001"
   xml:space="preserve"
   sodipodi:docname="tecnica.svg"
   width="1280"
   height="700"
   inkscape:version="1.0.2-2 (e86c870879, 2021-01-15)"><metadata
   id="metadata126"><rdf:RDF><cc:Work
       rdf:about=""><dc:format>image/svg+xml</dc:format><dc:type
         rdf:resource="http://purl.org/dc/dcmitype/StillImage" /><dc:title></dc:title></cc:Work></rdf:RDF></metadata><defs
   id="defs124" /><sodipodi:namedview
   pagecolor="#ffffff"
   bordercolor="#666666"
   borderopacity="1"
   objecttolerance="10"
   gridtolerance="10"
   guidetolerance="10"
   inkscape:pageopacity="0"
   inkscape:pageshadow="2"
   inkscape:window-width="1366"
   inkscape:window-height="705"
   id="namedview122"
   showgrid="false"
   inkscape:zoom="0.41986485"
   inkscape:cx="641.76355"
   inkscape:cy="367.98525"
   inkscape:window-x="-8"
   inkscape:window-y="-8"
   inkscape:window-maximized="1"
   inkscape:current-layer="Layer_1"
   showguides="false"
   inkscape:snap-global="true" />










<path
   style="fill:none;stroke:#1f1a1b;stroke-width:54.3121;stroke-linecap:round;stroke-linejoin:miter;stroke-miterlimit:4;stroke-dasharray:none;stroke-opacity:1"
   d="M 768.07801,-365.28442 -674.26685,97.700466"
   id="path1159-9" /><rect
   style="opacity:1;fill:#3d2f35;fill-opacity:1;fill-rule:evenodd;stroke:#4f4444;stroke-width:4.64412;stroke-linejoin:round;paint-order:stroke fill markers"
   id="rect978"
   width="1302.0704"
   height="728.72864"
   x="1.4424658"
   y="-19.372189" /><path
   style="fill:none;stroke:#1f1a1b;stroke-width:54.3121;stroke-linecap:round;stroke-linejoin:miter;stroke-miterlimit:4;stroke-dasharray:none;stroke-opacity:1"
   d="M 1462.6158,109.50907 20.270963,572.49396"
   id="path1159-2-7" /><path
   style="fill:none;stroke:#1f1a1b;stroke-width:59.6195;stroke-linecap:round;stroke-linejoin:miter;stroke-miterlimit:4;stroke-dasharray:none;stroke-opacity:1"
   d="M 1374.2203,28.802629 -203.33861,538.8779"
   id="path1159-3-5" /><path
   style="fill:none;stroke:#1f1a1b;stroke-width:56.3107;stroke-linecap:round;stroke-linejoin:miter;stroke-miterlimit:4;stroke-dasharray:none;stroke-opacity:1"
   d="M 1088.6108,-68.952004 -399.3699,413.46978"
   id="path1159-7" />
<g
   id="g91">
</g>
<g
   id="g93">
</g>
<g
   id="g95">
</g>
<g
   id="g97">
</g>
<g
   id="g99">
</g>
<g
   id="g101">
</g>
<g
   id="g103">
</g>
<g
   id="g105">
</g>
<g
   id="g107">
</g>
<g
   id="g109">
</g>
<g
   id="g111">
</g>
<g
   id="g113">
</g>
<g
   id="g115">
</g>
<g
   id="g117">
</g>
<g
   id="g119">
</g>
<path
   style="fill:none;stroke:#1f1a1b;stroke-width:54.3121;stroke-linecap:round;stroke-linejoin:miter;stroke-miterlimit:4;stroke-dasharray:none;stroke-opacity:1"
   d="M 826.69691,-293.0014 -615.64796,169.98349"
   id="path1159-1-58" /><path
   style="fill:none;stroke:#1f1a1b;stroke-width:54.3121;stroke-linecap:round;stroke-linejoin:miter;stroke-miterlimit:4;stroke-dasharray:none;stroke-opacity:1"
   d="M 1455.6659,234.49299 13.321041,697.47788"
   id="path1159" /><path
   style="fill:none;stroke:#1f1a1b;stroke-width:54.3121;stroke-linecap:round;stroke-linejoin:miter;stroke-miterlimit:4;stroke-dasharray:none;stroke-opacity:1"
   d="M 962.45491,-238.22187 -479.88999,224.76302"
   id="path1159-3-2" /><path
   style="fill:none;stroke:#1f1a1b;stroke-width:54.3121;stroke-linecap:round;stroke-linejoin:miter;stroke-miterlimit:4;stroke-dasharray:none;stroke-opacity:1"
   d="M 1514.2848,306.77601 71.939932,769.7609"
   id="path1159-1" /><path
   style="fill:none;stroke:#1f1a1b;stroke-width:54.3121;stroke-linecap:round;stroke-linejoin:miter;stroke-miterlimit:4;stroke-dasharray:none;stroke-opacity:1"
   d="M 1188.7181,-207.25953 -253.6267,255.72536"
   id="path1159-2-2" /><path
   style="fill:none;stroke:#1f1a1b;stroke-width:58.1342;stroke-linecap:round;stroke-linejoin:miter;stroke-miterlimit:4;stroke-dasharray:none;stroke-opacity:1"
   d="M 1198.7158,-12.429272 -339.83927,484.84106"
   id="path1159-1-5" /><circle
   style="opacity:1;fill:none;fill-opacity:1;fill-rule:evenodd;stroke:#2f2829;stroke-width:56.3461;stroke-linecap:round;stroke-linejoin:round;stroke-miterlimit:4;stroke-dasharray:none;stroke-opacity:1;paint-order:stroke fill markers"
   id="path1109"
   r="255.99005"
   cy="296.31387"
   cx="636.75946" /><g
   id="g1433"><path
     sodipodi:type="star"
     style="fill:#f8e9d3;fill-opacity:1;fill-rule:evenodd;stroke:#1f1a1b;stroke-width:50.3;stroke-linecap:round;stroke-linejoin:miter;stroke-miterlimit:4;stroke-dasharray:none;stroke-opacity:1;paint-order:stroke fill markers"
     id="path1335"
     sodipodi:sides="8"
     sodipodi:cx="652.47768"
     sodipodi:cy="290.5697"
     sodipodi:r1="182.74014"
     sodipodi:r2="237.32486"
     sodipodi:arg1="0.54902514"
     sodipodi:arg2="0.94172422"
     inkscape:flatsided="false"
     inkscape:rounded="0.67"
     inkscape:randomized="0"
     inkscape:transform-center-x="3.0168292"
     inkscape:transform-center-y="-56.699388"
     d="m 808.36115,385.93372 c -34.22578,55.94599 36.78731,57.94094 -16.24279,96.53065 -53.0301,38.58971 -33.0859,-29.59435 -96.84697,-14.23585 -63.76107,15.35851 -14.95787,66.98298 -79.74287,56.77209 -64.78499,-10.2109 -2.46889,-44.32163 -58.41488,-78.54741 -55.94598,-34.22578 -57.94094,36.7873 -96.53065,-16.2428 -38.58971,-53.0301 29.59436,-33.0859 14.23585,-96.84697 -15.3585,-63.76106 -66.98298,-14.95787 -56.77209,-79.74286 10.2109,-64.785 44.32164,-2.4689 78.54742,-58.41489 34.22578,-55.94598 -36.78731,-57.94093 16.24279,-96.530647 53.0301,-38.589713 33.0859,29.594357 96.84697,14.235847 63.76107,-15.358504 14.95788,-66.982981 79.74287,-56.772085 64.78499,10.210895 2.46889,44.321635 58.41488,78.547415 55.94599,34.22578 57.94094,-36.787307 96.53065,16.24279 38.58971,53.0301 -29.59435,33.0859 -14.23585,96.84697 15.35851,63.76107 66.98298,14.95788 56.77209,79.74287 -10.2109,64.78499 -44.32164,2.46889 -78.54742,58.41488 z" /><g
     id="g1361"
     transform="translate(-933.74705,185.77407)"><circle
       style="opacity:1;fill:none;fill-opacity:1;fill-rule:evenodd;stroke:#3d2f35;stroke-width:22.723;stroke-linecap:round;stroke-linejoin:round;stroke-miterlimit:4;stroke-dasharray:none;stroke-opacity:1;paint-order:stroke fill markers"
       id="path1337"
       cx="1586.2247"
       cy="104.79563"
       r="90.925697" /><path
       sodipodi:type="star"
       style="fill:none;fill-opacity:1;fill-rule:evenodd;stroke:#efd186;stroke-width:23.8907;stroke-linecap:round;stroke-linejoin:miter;stroke-miterlimit:4;stroke-dasharray:none;stroke-opacity:1;paint-order:stroke fill markers"
       id="path1335-4"
       sodipodi:sides="8"
       sodipodi:cx="1586.2247"
       sodipodi:cy="104.79563"
       sodipodi:r1="171.72754"
       sodipodi:r2="223.02278"
       sodipodi:arg1="0.54902514"
       sodipodi:arg2="0.94172422"
       inkscape:flatsided="false"
       inkscape:rounded="0.67"
       inkscape:randomized="0"
       inkscape:transform-center-x="2.8349823"
       inkscape:transform-center-y="-53.28246"
       d="m 1732.7141,194.41266 c -32.1632,52.57447 34.5704,54.4492 -15.2639,90.71335 -49.8343,36.26416 -31.0921,-27.81089 -91.0106,-13.37794 -59.9186,14.43294 -14.0565,62.94634 -74.9373,53.35079 -60.8808,-9.59555 -2.3201,-41.65065 -54.8946,-73.81386 -52.5745,-32.1632 -54.4492,34.57037 -90.7134,-15.26394 -36.2641,-49.83431 27.8109,-31.09202 13.378,-91.01061 -14.4329,-59.918588 -62.9463,-14.05646 -53.3508,-74.937263 9.5956,-60.8808073 41.6507,-2.320109 73.8139,-54.894583 32.1632,-52.574474 -34.5704,-54.449202 15.2639,-90.713356 49.8343,-36.264158 31.092,27.810892 91.0106,13.377947 59.9186,-14.432945 14.0565,-62.946345 74.9373,-53.350795 60.8808,9.59555 2.3201,41.650652 54.8946,73.81386 52.5744,32.1632072 54.4492,-34.57037 90.7133,15.26394 36.2642,49.834309 -27.8109,31.0920214 -13.3779,91.010611 14.4329,59.918589 62.9463,14.056457 53.3508,74.937269 -9.5956,60.8808 -41.6507,2.3201 -73.8139,54.89458 z" /></g></g><path
   style="fill:none;stroke:#1f1a1b;stroke-width:54.3121;stroke-linecap:round;stroke-linejoin:miter;stroke-miterlimit:4;stroke-dasharray:none;stroke-opacity:1"
   d="M 1650.0428,361.55554 207.6979,824.54043"
   id="path1159-3" /><path
   style="fill:none;stroke:#1f1a1b;stroke-width:54.3121;stroke-linecap:round;stroke-linejoin:miter;stroke-miterlimit:4;stroke-dasharray:none;stroke-opacity:1"
   d="M 1876.306,392.51788 433.96119,855.50277"
   id="path1159-2" /></svg>
