<?xml version="1.0" encoding="UTF-8" standalone="no"?>
<!-- Created with Inkscape (http://www.inkscape.org/) -->

<svg
   width="115.51422mm"
   height="106.8227mm"
   viewBox="0 0 115.51422 106.8227"
   version="1.1"
   id="svg5"
   sodipodi:docname="logo.svg"
   inkscape:version="1.1.1 (3bf5ae0d25, 2021-09-20)"
   xmlns:inkscape="http://www.inkscape.org/namespaces/inkscape"
   xmlns:sodipodi="http://sodipodi.sourceforge.net/DTD/sodipodi-0.dtd"
   xmlns="http://www.w3.org/2000/svg"
   xmlns:svg="http://www.w3.org/2000/svg">
  <sodipodi:namedview
     id="namedview7"
     pagecolor="#ffffff"
     bordercolor="#666666"
     borderopacity="1.0"
     inkscape:pageshadow="2"
     inkscape:pageopacity="0.0"
     inkscape:pagecheckerboard="0"
     inkscape:document-units="mm"
     showgrid="false"
     fit-margin-top="0"
     fit-margin-left="0"
     fit-margin-right="0"
     fit-margin-bottom="0"
     inkscape:zoom="0.74118967"
     inkscape:cx="315.70866"
     inkscape:cy="333.92262"
     inkscape:window-width="1920"
     inkscape:window-height="1017"
     inkscape:window-x="-8"
     inkscape:window-y="-8"
     inkscape:window-maximized="1"
     inkscape:current-layer="layer1" />
  <defs
     id="defs2">
    <inkscape:path-effect
       effect="bspline"
       id="path-effect270"
       is_visible="true"
       lpeversion="1"
       weight="33.333333"
       steps="2"
       helper_size="0"
       apply_no_weight="true"
       apply_with_weight="true"
       only_selected="false" />
  </defs>
  <g
     inkscape:label="Camada 1"
     inkscape:groupmode="layer"
     id="layer1"
     transform="translate(-58.096928,-104.54141)">
    <path
       id="path432"
       style="fill:#000000;stroke-width:0.292975"
       d="m 143.57384,104.55232 c -0.2973,0.065 -0.58957,0.43004 -0.97563,1.11696 -0.84959,1.51165 -3.13758,3.20956 -5.74393,4.26246 -3.15674,1.27523 -5.97795,1.1988 -10.45214,-0.28268 -2.14788,-0.7112 -3.68299,-1.06642 -4.12683,-0.95503 -1.18728,0.29799 -2.23568,1.33157 -3.00988,2.9681 -0.96894,2.04819 -1.41773,2.18862 -2.33808,0.73072 -1.00424,-1.59084 -1.39367,-3.59314 -1.0523,-5.40804 0.15106,-0.80305 0.21191,-1.56113 0.13561,-1.68461 -0.26848,-0.43439 -1.49301,-0.21775 -2.45252,0.43431 -1.25544,0.85316 -2.04266,2.41018 -2.25398,4.45759 -0.15155,1.46844 -0.21733,1.59532 -0.63973,1.23427 -0.25901,-0.22139 -0.69275,-0.48048 -0.96362,-0.57622 -0.68488,-0.24207 -2.87653,-3.07558 -2.87653,-3.71884 0,-0.29057 -0.20553,-0.60742 -0.45663,-0.70383 -0.33801,-0.12971 -0.64967,0.24559 -1.19766,1.44256 -0.63026,1.37667 -0.69277,1.7547 -0.42058,2.53549 0.17592,0.50465 0.275,0.96213 0.2203,1.01683 -0.0547,0.0547 -1.80255,-0.0424 -3.88364,-0.21572 -4.365213,-0.36352 -6.365586,-0.21057 -9.663618,0.7393 -3.452543,0.99438 -5.033677,1.86467 -9.702532,5.33823 -2.4657,1.83445 -5.524214,5.14164 -7.494341,8.10375 -0.768305,1.15514 -1.715331,2.57847 -2.104617,3.16265 -1.175886,1.7646 -2.084222,2.30661 -3.862473,2.30661 -0.864522,0 -1.571882,0.1316 -1.571882,0.2924 0,0.16082 0.580566,1.05073 1.290352,1.97759 0.709772,0.92686 1.242976,1.734 1.185064,1.79391 -0.240619,0.24855 -2.777287,-1.49599 -3.354915,-2.30719 -0.343777,-0.48279 -0.832007,-0.87779 -1.084926,-0.87779 -0.382577,0 -0.429552,0.25946 -0.27867,1.54328 0.43319,3.68572 2.222712,6.37501 4.806631,7.22368 0.684828,0.22493 1.245147,0.5038 1.245147,0.61972 0,0.40873 -2.249028,2.52147 -4.439841,4.17031 -7.411455,5.57802 -9.072879,8.75821 -7.316952,14.00562 0.949639,2.83787 4.100061,6.62552 6.374511,7.66429 0.348427,0.1592 0.5826,0.49747 0.530444,0.76677 -0.374514,1.93325 -0.439595,2.0369 -1.562726,2.48628 -1.268447,0.50755 -3.33484,0.66801 -4.352291,0.33819 -1.808281,-0.58618 0.625338,1.78075 2.757518,2.68199 0.643692,0.27192 2.314479,0.53662 3.907678,0.61856 1.5308,0.0787 2.938282,0.26699 3.127744,0.41773 0.257027,0.20449 0.164784,0.65955 -0.363357,1.79389 -0.917873,1.97132 -0.964198,4.74887 -0.110444,6.63087 1.425518,3.14232 3.668636,4.91348 7.643691,6.03518 1.285375,0.36271 2.404217,0.72591 2.485714,0.80741 0.08154,0.0815 0.01494,0.39183 -0.147631,0.68952 -0.162577,0.29768 -0.366014,0.88031 -0.452052,1.29436 -0.292773,1.40833 -3.363695,4.01501 -5.680982,4.82207 -0.53256,0.18548 -0.993967,0.45707 -1.025416,0.6037 -0.07637,0.35646 4.591697,0.94257 7.757562,0.97391 l 2.540647,0.0251 -0.489817,0.95216 c -0.316557,0.61485 -0.485516,1.62684 -0.476659,2.85652 0.01266,1.74705 0.171794,2.21898 1.924943,5.71303 1.051036,2.09473 2.103152,3.84579 2.338081,3.89107 0.275886,0.0532 0.779265,-0.65386 1.419104,-1.9936 0.545075,-1.14163 1.464128,-2.60608 2.042245,-3.25478 1.044092,-1.17155 1.057045,-1.1767 1.930092,-0.7187 0.550621,0.28885 1.631836,0.46197 2.89428,0.46292 1.700627,0.001 2.254781,0.1394 3.55233,0.88179 0.845417,0.48378 2.243411,1.01336 3.106574,1.17706 0.82036,0.15557 1.60835,0.42751 1.85742,0.62485 0.0147,-0.003 0.0299,-0.006 0.0469,-0.007 0.0423,-8.9e-4 0.0917,0.009 0.14649,0.032 0.27784,0.11678 0.5659,0.20655 0.85261,0.29985 0.019,-5.9e-4 0.0382,-0.002 0.0572,-0.002 0.0269,-5.8e-4 0.0535,-2.9e-4 0.0801,0.003 0.077,-0.0483 0.15549,-0.094 0.2409,-0.12818 0.007,-0.0137 0.0133,-0.0281 0.0177,-0.0435 0.005,-0.0188 0.0135,-0.0322 0.0229,-0.0401 0.0399,-0.44945 0.12602,-0.69964 0.36165,-0.6014 3.54859,1.47959 11.17583,2.78164 10.867,1.85512 -0.0631,-0.18945 -1.42526,-0.56511 -3.02704,-0.83486 -5.06037,-0.85212 -8.18838,-2.04695 -12.141326,-4.63841 -2.233555,-1.46425 -7.080299,-6.1927 -9.051919,-8.83103 -5.278139,-7.06296 -7.209042,-11.4865 -6.065511,-13.89632 0.765272,-1.6127 1.134132,-4.22143 0.92585,-6.5519 -0.195875,-2.19153 -1.315332,-6.51325 -2.059986,-7.95326 -0.401821,-0.77702 -0.373386,-0.84964 0.763911,-1.95011 0.649715,-0.62868 1.435174,-1.63436 1.745265,-2.23509 0.652765,-1.26455 1.426786,-4.6915 1.461445,-6.47121 l 0.02346,-1.22627 0.429737,0.98479 c 0.236147,0.54152 0.456118,1.92585 0.488671,3.07625 0.04633,1.63762 0.154912,2.09145 0.498976,2.09145 0.607869,0 2.215396,-3.13409 2.606452,-5.0813 0.435189,-2.16696 0.400357,-5.68497 -0.07668,-7.71178 l -0.390824,-1.66058 2.519476,-0.89036 c 2.994882,-1.05843 9.162223,-2.67398 10.207803,-2.67398 0.40703,0 1.24887,0.15289 1.87116,0.33932 0.9935,0.29772 1.27929,0.60982 2.34379,2.56354 3.47579,6.37947 6.80555,10.25441 11.44437,13.31837 5.40847,3.57243 6.83738,2.22686 4.09021,-3.85102 -1.99882,-4.42224 -1.9983,-4.42166 -0.56535,-3.10257 3.40388,3.13305 9.2096,5.78891 9.68136,4.42897 0.17757,-0.51187 -0.38842,-2.02699 -1.8185,-4.8713 -1.27201,-2.52987 -3.39867,-8.47144 -3.12889,-8.7412 0.0847,-0.0848 0.60435,-0.07 1.15473,0.0332 0.91255,0.17104 1.17409,0.48841 2.97038,3.60096 2.42603,4.2037 9.07901,12.98135 9.83929,12.98135 0.70547,0 0.90767,-0.76313 0.57966,-2.18875 -0.36598,-1.59061 -0.19252,-1.60445 0.40799,-0.032 0.64388,1.68597 1.53363,2.80672 2.22822,2.80672 0.55575,0 2.04454,-1.67329 2.04454,-2.29802 0,-0.72092 0.5569,-0.28903 0.87663,0.6798 0.38972,1.18084 0.446,2.60155 0.1482,3.72914 -0.18153,0.68732 -0.10785,0.81727 0.55506,0.98365 0.42019,0.10541 0.7639,0.23238 0.7639,0.2821 0,0.0496 -0.52324,1.55139 -1.16274,3.3366 -2.16275,6.03744 -2.53611,9.96809 -1.30294,13.7258 0.43288,1.31908 0.45579,1.7688 0.15565,3.11 -0.52558,2.34851 -2.01256,5.20224 -4.74942,9.11773 -4.38041,6.2668 -9.16178,10.63301 -14.42734,13.17303 -2.95807,1.42685 -4.91066,1.99414 -8.76293,2.54523 -1.85558,0.2653 -2.56355,0.48205 -2.56355,0.78508 0,0.34307 0.38336,0.38195 2.12408,0.21515 2.63319,-0.2523 5.77227,-0.94056 7.65514,-1.67774 0.78619,-0.30793 1.48868,-0.50092 1.56043,-0.42917 0.0219,0.0219 -0.0261,0.59684 -0.0589,1.0546 0.14472,-0.0511 0.29238,-0.0848 0.44119,-0.1001 0.0908,-0.0208 0.26103,-0.0597 0.2821,-0.0647 0.27474,-0.0647 0.36139,-0.1 0.65405,-0.14362 0.15315,-0.16532 0.35025,-0.30023 0.68895,-0.44175 0.54445,-0.22749 1.30374,-0.41372 1.68747,-0.41372 0.38358,0 1.56773,-0.46143 2.63048,-1.02541 1.66044,-0.88115 2.21269,-1.02602 3.92599,-1.02713 1.24299,-0.001 2.32458,-0.17548 2.87254,-0.46292 0.87304,-0.45801 0.886,-0.45287 1.93009,0.7187 0.57813,0.64869 1.49702,2.11314 2.04225,3.25478 0.97911,2.05017 1.53916,2.45086 2.05655,1.47173 3.05276,-5.77714 3.62005,-7.20017 3.61985,-9.08224 -1.4e-4,-1.25027 -0.1755,-2.23138 -0.51042,-2.85651 l -0.51042,-0.95217 2.57097,-0.0251 c 3.35236,-0.0329 7.88399,-0.62072 7.71064,-1.00025 -0.0736,-0.16113 -0.58659,-0.44838 -1.13985,-0.63858 -2.51285,-0.86388 -5.61117,-3.75182 -5.61117,-5.23008 0,-0.33321 -0.15624,-0.76206 -0.34677,-0.95274 -0.49529,-0.49529 -0.26095,-0.63155 2.35353,-1.36932 3.97506,-1.12171 6.21874,-2.89286 7.64427,-6.03518 0.85356,-1.88201 0.80739,-4.65955 -0.1104,-6.63087 -0.52814,-1.13434 -0.62039,-1.5894 -0.36336,-1.79391 0.18946,-0.15073 1.59695,-0.33898 3.12775,-0.41771 3.04683,-0.15679 4.40436,-0.59611 6.17823,-2.00105 1.35471,-1.0728 1.49425,-1.60186 0.34048,-1.29093 -1.17993,0.31784 -2.89847,0.1761 -4.20523,-0.34676 -1.12306,-0.44936 -1.18986,-0.5547 -1.56273,-2.48342 -0.0581,-0.30047 0.30981,-0.70493 0.98593,-1.08493 1.75481,-0.98624 4.34621,-3.93396 5.35654,-6.09298 0.70968,-1.51658 0.95021,-2.48922 1.0523,-4.25329 0.11799,-2.03814 0.0468,-2.46139 -0.65232,-3.89052 -0.8883,-1.81561 -3.36939,-4.25252 -7.5859,-7.45028 -3.03776,-2.30382 -4.32346,-3.76255 -3.67708,-4.17204 0.22037,-0.13959 1.63124,-0.25642 3.13519,-0.25864 3.21363,-0.006 3.53411,-0.4827 0.7107,-1.05861 -2.74367,-0.55965 -4.41206,-1.39399 -4.64527,-2.3232 -0.10807,-0.43074 -0.0345,-2.15156 0.16365,-3.82413 0.71509,-6.03386 -0.29111,-8.62347 -4.09079,-10.52882 -1.4777,-0.741 -3.22273,-2.17455 -3.22273,-2.64707 0,-0.22306 0.58811,-0.83766 1.30695,-1.36646 0.71882,-0.52881 1.31174,-1.04812 1.31839,-1.15359 0.007,-0.10542 -0.68071,-0.60213 -1.52668,-1.10381 -0.84596,-0.50169 -2.32915,-1.58322 -3.29598,-2.40332 -2.14859,-1.82252 -3.21579,-2.30718 -5.08016,-2.30718 h -1.43625 l 0.27008,-1.39164 c 0.36065,-1.85914 0.0456,-4.26343 -0.67922,-5.18487 -0.4045,-0.51422 -0.70638,-0.74988 -1.00367,-0.68494 z m -46.661529,25.47915 c 1.69596,0.0136 3.654949,0.26627 4.791179,0.69125 l 1.47175,0.5499 0.519,2.64879 c 0.28529,1.45686 0.97437,4.01139 1.53126,5.6764 0.55688,1.66502 1.01282,3.08313 1.01282,3.15178 0,0.0685 -0.7074,0.0415 -1.57188,-0.0601 -1.26371,-0.14853 -2.36914,0.0209 -5.639784,0.86404 -2.237397,0.57676 -4.990478,1.38423 -6.117582,1.79391 -1.127258,0.40968 -2.063902,0.74445 -2.081729,0.74445 -0.01787,0 -0.64511,-1.57473 -1.393352,-3.49968 -2.031549,-5.22639 -1.872499,-6.22163 1.545561,-9.6951 1.571018,-1.59655 2.577474,-2.37176 3.398975,-2.6179 0.593401,-0.17778 1.516204,-0.25578 2.533782,-0.24777 z m 29.509289,5.07385 0.62429,1.74012 c 0.3433,0.95707 1.00973,2.59045 1.4809,3.62958 0.47117,1.03915 0.85661,1.93709 0.85661,1.99533 0,0.0583 -0.44719,0.10586 -0.99395,0.10586 -0.98866,0 -0.99634,-0.01 -1.32697,-1.8311 -0.18284,-1.00711 -0.40156,-2.68806 -0.48638,-3.73545 z m 30.18107,26.91314 c 1.24175,0.006 2.41318,0.61986 3.66849,1.87517 2.22979,2.2298 2.47644,6.07878 0.6798,10.61692 -1.25403,3.16759 -2.63501,5.18212 -5.34338,7.79476 -1.88385,1.81727 -2.33248,2.10531 -3.53802,2.27056 -1.79229,0.24566 -1.86214,0.23965 -2.98355,-0.24776 -1.02529,-0.44563 -1.21345,-1.03266 -0.51614,-1.61137 0.23992,-0.19913 0.36288,-0.48023 0.27352,-0.62487 -0.0894,-0.14464 0.0657,-1.28329 0.34391,-2.53035 l 0.50584,-2.2677 0.42343,1.26576 c 0.55929,1.67151 2.36259,3.56835 3.39211,3.56835 0.93431,0 0.93715,-0.0356 0.17682,-2.22479 -0.90818,-2.61572 -1.30483,-7.98602 -0.90754,-12.3044 0.3843,-4.17711 0.45397,-4.40834 1.4809,-4.93939 0.82856,-0.42846 1.59876,-0.6442 2.34381,-0.64089 z m -81.566257,0.0452 c 1.394157,0.003 2.996959,0.6188 3.356059,1.28978 0.141757,0.26488 0.416117,2.06234 0.609411,3.99409 0.439947,4.39306 0.04592,10.04617 -0.868055,12.45089 -0.779233,2.05021 -0.764063,2.3295 0.125318,2.3295 1.009444,0 2.897285,-1.95469 3.43102,-3.55233 l 0.428017,-1.28177 0.367937,1.9444 c 0.202249,1.0693 0.412098,2.32177 0.466358,2.78327 0.05421,0.46149 0.141014,1.09481 0.192836,1.40765 0.06116,0.3689 -0.162997,0.70235 -0.638021,0.94817 -0.402839,0.20846 -1.06204,0.35982 -1.464879,0.33647 -2.345106,-0.13631 -2.656642,-0.28953 -4.851838,-2.38501 -2.577861,-2.46079 -4.113296,-4.71107 -5.434927,-7.9647 -0.819852,-2.01834 -0.954591,-2.70997 -0.972199,-4.98059 -0.01687,-2.1737 0.09538,-2.87274 0.641456,-3.98093 0.890831,-1.80785 3.01026,-3.34221 4.611507,-3.33889 z m 23.032924,3.97406 c -4.077515,0.0509 -7.763949,1.51846 -10.240417,4.22812 -1.450962,1.58757 -1.742786,2.15974 -1.31782,2.58471 0.284381,0.28438 0.279411,0.28609 2.251109,-0.81655 1.265268,-0.70759 2.590895,-1.14805 4.407795,-1.46488 2.995063,-0.5223 8.298516,-0.59458 9.951446,-0.13562 2.05205,0.56981 4.12603,0.80193 4.65499,0.52072 1.58146,-0.84073 -0.59979,-3.0825 -3.98149,-4.09193 -1.93811,-0.57857 -3.8722,-0.84774 -5.725613,-0.82457 z m 35.671503,0.004 c -1.85501,-0.0251 -3.78909,0.24262 -5.72332,0.81998 -3.31759,0.9903 -5.37366,3.03768 -4.10681,4.08907 0.40087,0.3327 2.77666,0.0705 4.88445,-0.53902 1.53098,-0.4428 6.89986,-0.35703 9.84959,0.15736 1.6698,0.29119 3.07226,0.73665 3.92027,1.24514 0.7262,0.43547 1.51843,0.88052 1.76014,0.98936 0.2417,0.10896 0.5713,0.1641 0.73244,0.12246 0.71919,-0.18602 0.35312,-1.10003 -1.05975,-2.64594 -2.47721,-2.71046 -6.17599,-4.18308 -10.25701,-4.23841 z m -9.99093,17.58483 c -0.27315,0.0165 -0.73421,0.21093 -1.48319,0.58996 -2.56627,1.29867 -3.72316,2.5854 -3.30513,3.67478 0.24354,0.63465 0.7088,0.44645 1.18793,-0.48009 0.27427,-0.53038 1.1315,-1.24347 2.20132,-1.83109 1.10083,-0.60468 1.75335,-1.15306 1.75556,-1.47518 0.002,-0.33377 -0.0834,-0.49494 -0.35649,-0.47838 z m -15.80009,0.0137 c -0.1851,0.0324 -0.24662,0.19317 -0.24662,0.47036 0,0.33151 0.64114,0.8708 1.77902,1.49635 0.97854,0.53796 1.85626,1.19451 1.95013,1.45916 0.0939,0.26464 0.30147,0.6504 0.46178,0.85718 0.45639,0.58872 0.94183,0.22758 0.87721,-0.6529 -0.0796,-1.08512 -0.46149,-1.47958 -2.57785,-2.66311 -1.28356,-0.71781 -1.93516,-1.02105 -2.24367,-0.96704 z m 21.30197,6.99479 c -0.38565,0.0212 -0.82502,0.16863 -1.04029,0.42802 -0.25671,0.30932 -0.93994,0.44065 -2.30662,0.44175 -2.59747,0.002 -11.95625,1.69472 -17.1488,3.10085 -1.18212,0.32008 -2.22655,0.40657 -3.29597,0.27295 -1.43262,-0.179 -1.56559,-0.14615 -1.56559,0.38682 0,0.33956 0.5192,0.98228 1.24514,1.54098 0.68483,0.52706 2.18377,1.85348 3.33089,2.9475 1.39329,1.3288 2.80046,2.33163 4.23955,3.02131 2.62949,1.26014 4.96364,1.38667 7.81594,0.42344 3.28642,-1.10984 4.79942,-2.76287 7.06059,-7.71408 0.7817,-1.71164 1.63769,-3.35117 1.90206,-3.6433 0.26437,-0.29212 0.48066,-0.68562 0.48066,-0.87435 0,-0.24759 -0.33191,-0.35302 -0.71756,-0.33189 z m -4.80206,2.06228 c 1.31054,-0.022 1.96856,0.24032 2.81817,0.729 0.0452,0.026 -0.49428,1.28511 -1.19879,2.79757 -1.44535,3.10287 -3.09024,4.9782 -5.182,5.90701 -0.81652,0.36256 -2.21062,0.63527 -3.66221,0.71699 -2.23571,0.12593 -2.43136,0.0854 -4.24298,-0.8875 -2.56503,-1.37739 -4.06793,-2.69259 -4.72138,-4.13142 -1.00333,-2.20923 -1.20407,-2.09341 6.10786,-3.5117 5.63336,-1.09272 8.39652,-1.59158 10.08133,-1.61995 z" />
  </g>
</svg>
